<svg width="50" height="33" viewBox="0 0 50 33" fill="none" xmlns="http://www.w3.org/2000/svg">
<path d="M13.0262 9.94828C11.8426 9.892 9.11042 10.1154 7.80062 10.9119C6.72121 11.5682 5.19126 13.1239 4.16031 14.2648C3.2878 15.2304 3.42099 16.5928 3.3613 19.6293C3.33208 21.1156 3.98379 21.9957 4.52528 22.9064C5.0752 23.8313 6.19749 24.5539 8.10164 25.5217C10.0652 26.5198 13.1353 25.6965 14.3556 25.2429C16.7946 24.3361 17.8526 23.766 18.6516 23.0548C19.6459 22.1698 19.9606 20.471 20.4432 18.1763C21.0299 15.387 20.4739 13.3046 20.3324 12.851C19.9013 11.4696 18.0334 10.4053 16.953 10.2331C15.848 10.0569 14.9636 9.83571 11.3633 9.86215C10.3274 9.86975 9.73292 10.5708 8.96716 11.166C7.42618 12.3638 7.56868 16.3472 8.24746 19.8016C8.45863 20.8763 9.15817 21.4295 9.72439 21.7706C11.092 22.5945 12.6783 20.6415 13.9591 19.5893C15.0193 18.7182 15.4121 17.3995 15.6961 16.6337C15.9498 15.9494 15.9255 14.7884 15.5034 14.4106C13.7127 12.8081 13.0296 19.035 12.321 19.3863C9.91408 20.5796 11.0939 15.005 11.0086 15.6002C10.9796 15.914 10.9796 16.2517 11.0359 16.5382C11.0922 16.8247 11.2047 17.0498 11.3207 17.2818" stroke="#AFECB2" stroke-width="6.72" stroke-linecap="round"/>
<path d="M30.7355 8.79908C28.6515 8.79908 22.9654 9.0242 20.9342 9.56397C19.5293 9.93733 19.4249 12.4829 19.1674 14.4749C18.9285 16.3221 19.3072 18.0597 19.6475 18.9969C20.0832 20.197 21.3521 21.017 22.2048 21.4749C23.1932 22.0057 24.1934 22.2722 25.892 22.4138C28.6999 22.6478 31.2966 21.7674 32.5177 20.4909C34.0095 18.9314 33.7474 17.1081 33.8335 15.9092C33.9398 14.4292 33.7508 12.5033 33.3236 11.2191C33.0049 10.2611 32.0487 9.37211 30.9393 8.68736C29.5281 7.81633 28.0716 7.89176 26.5341 7.74765C24.0501 7.51482 20.281 7.94292 19.482 8.62597C18.7169 9.28001 18.3436 10.3852 17.6631 11.9764C17.0751 13.3515 16.9792 14.7614 16.9775 17.543C16.9765 19.2338 17.658 20.3348 18.1415 21.2456C18.6673 22.2359 19.4761 22.951 20.4703 23.5778C21.3012 24.1015 22.5425 24.0903 27.3058 24.0639C29.3142 24.0527 30.2751 23.1284 31.2438 22.4735C32.0814 21.9072 33.2289 21.0273 34.1439 19.8607C35.0411 18.7169 35.1663 16.825 35.2559 15.0018C35.3277 13.5388 33.3585 12.6705 31.8236 12.013C30.1405 11.2921 27.3399 11.5278 24.8125 11.6967C23.2722 11.7995 22.6653 12.8888 22.1835 13.7662C20.9183 16.0704 21.1849 17.8312 21.3819 18.7701C22.1626 22.4909 29.54 12.9519 29.6833 12.6944C30.9778 10.3673 27.0978 18.9142 27.2095 19.3985C28.4025 18.6942 29.1409 17.6709 29.6798 17.2718C29.9374 17.2104 30.1625 17.4355 30.565 17.6675" stroke="#AFECB2" stroke-width="6.72" stroke-linecap="round"/>
<path d="M40.6406 6.93778C36.6106 6.76723 34.6783 6.87979 33.5101 7.24902C33.0303 7.40067 32.4578 7.78709 31.8899 8.43943C31.0521 9.4018 31.2606 13.3299 31.4584 15.8863C31.5973 17.6813 32.3964 18.9852 32.9635 20.0093C33.4705 20.9251 34.6101 21.2057 36.1698 21.6883C37.7092 22.1647 39.1586 21.6065 39.8399 21.2662C40.8192 20.7772 41.6025 19.6776 42.3436 18.5392C43.1216 17.3438 43.1409 15.755 43.1144 12.1821C43.1084 11.371 42.8612 11.0377 42.4646 10.6949C40.5013 8.99756 37.5845 8.75922 36.2098 8.50169C35.3108 8.33325 31.6904 8.30214 29.2183 9.0372C27.5248 9.54074 27.9076 12.5556 27.8778 15.5393C27.8606 17.2535 28.757 18.1324 29.7777 19.4951C31.0966 21.2558 31.7688 21.9425 32.6778 22.3424C33.8897 22.8756 37.1444 23.1397 39.7248 22.5743C41.7652 22.1273 42.8509 20.984 44.0192 20.1867C45.1672 19.4032 45.7536 18.2552 46.2388 16.9199C47.0054 14.81 46.2141 11.2628 45.8722 10.2958C45.362 8.85322 43.9424 8.07702 42.7205 7.53639C41.6449 7.06052 39.1808 7.27886 36.8383 8.12733C36.0036 8.42967 35.6402 9.54713 35.2991 10.5968C35.0246 11.4418 35.2394 12.2213 35.381 12.8455C35.4471 13.137 35.5788 13.3571 35.8057 13.3887C36.3811 13.4687 36.8869 12.796 37.199 12.229C37.7571 11.215 34.5624 18.6339 34.0473 21.0855C33.9521 21.5388 33.9893 21.8265 34.1582 21.6619C36.6454 19.2375 38.8772 15.9222 39.0759 15.6936C39.8802 14.7685 39.6174 18.5895 39.7299 18.7899C39.9531 19.1873 40.4684 17.9124 40.7242 17.3735C40.8112 17.116 40.8112 16.8909 40.7268 16.6342C40.6424 16.3775 40.4735 16.0961 39.9585 15.2946" stroke="#AFECB2" stroke-width="6.72" stroke-linecap="round"/>
<path d="M16.8604 6.95387C17.1041 6.46209 18.3123 5.32312 18.8807 4.95056C19.459 4.57151 20.1219 4.32892 20.7605 4.06334C21.6689 3.68559 22.321 3.5838 23.2945 3.45925C26.2685 3.07876 28.0691 3.901 28.6737 4.09687C29.734 4.44034 31.0858 5.4615 31.6542 5.88782C32.2062 6.30183 32.7889 6.70266 33.5872 7.53614C33.8193 7.87357 33.9971 8.15884 34.1919 8.44198C34.2813 8.58462 34.3515 8.72513 34.5304 8.97634" stroke="#AFECB2" stroke-width="6.72" stroke-linecap="round"/>
<path d="M18.8604 26.7116C19.1084 27.065 19.4607 27.561 20.0291 27.8638C20.589 28.1621 21.2703 28.2721 21.8387 28.3966C22.3964 28.5188 22.9734 28.5914 23.5418 28.6451C24.1553 28.7032 26.9609 28.8405 28.6512 28.7346C29.2455 28.6973 29.7859 28.2742 30.4427 27.8841C31.0292 27.4226 31.5955 26.9266 32.058 26.3943C32.165 26.2517 32.2704 26.1112 32.4854 25.86" stroke="#AFECB2" stroke-width="6.72" stroke-linecap="round"/>
<path d="M20.7607 13.536V13.824" stroke="#0D0D0D" stroke-width="2.5" stroke-linecap="round"/>
<path d="M27.9609 13.36V13.552" stroke="#0D0D0D" stroke-width="2.5" stroke-linecap="round"/>
<path d="M18.3604 20.8963C18.4429 20.6073 18.6506 20.2727 18.942 19.9706C19.1237 19.7823 19.3185 19.7705 19.4952 19.7911C19.9318 19.8421 20.3593 20.207 20.7255 20.4056C21.0508 20.582 21.34 20.8537 21.7259 20.8756C22.2375 20.9047 22.7573 20.2095 23.2677 19.8555C23.7332 19.5326 24.341 19.3952 24.8304 19.4261C25.3682 19.4602 25.6557 19.8943 26.0935 20.1345C26.2774 20.2354 26.7584 20.2708 27.3938 20.2399C27.9141 20.2145 28.1575 19.813 28.823 19.3867C29.7877 18.7688 30.4079 18.8323 30.8057 18.9048C30.9721 18.9774 31.1397 19.0612 31.2957 19.1547C31.3692 19.2069 31.4311 19.2688 31.6826 19.4577" stroke="#0D0D0D" stroke-width="2" stroke-linecap="round"/>
</svg>
