<svg width="41" height="37" viewBox="0 0 41 37" fill="none" xmlns="http://www.w3.org/2000/svg">
<path d="M3.78062 28.4288C3.36454 21.8484 3.63916 18.942 4.88222 15.2368C7.12758 8.54396 9.04829 7.9074 9.98241 6.90047C11.5358 5.22604 13.6169 4.71601 17.8714 3.98578C24.1439 2.90919 25.7542 4.36234 27.0773 4.98647C28.366 5.59431 29.7029 8.09464 32.4126 12.3939C33.7429 14.5045 34.2216 16.1459 34.7084 18.5717C34.7791 19.7492 34.8478 20.5897 34.9518 22.1386C34.9872 23.4129 34.9872 25.6785 34.9872 28.0127" stroke="#E0D0FF" stroke-width="7.2" stroke-linecap="round"/>
<path d="M3.78027 29.6771C4.47098 30.9212 5.44046 32.1695 6.85828 32.727C9.67117 33.8332 11.2615 31.9698 12.4796 31.3092C13.5164 30.747 13.9037 29.8186 14.2147 29.5055C14.8699 28.8459 15.8385 31.2666 17.2636 32.2746C18.3574 33.0482 20.8939 32.7978 22.8454 32.1768C24.2619 31.726 24.7219 30.1681 25.2753 29.2974C25.8839 28.34 27.2143 30.7132 28.3596 31.5121C30.294 32.8614 34.009 31.4164 35.1564 30.6851C35.4093 30.5239 35.6068 30.3054 35.7815 30.062C37.9466 27.0464 36.0978 19.8367 35.9584 18.448C35.8201 17.0708 35.2656 16.0211 34.9192 14.8415C34.4721 13.3191 33.88 12.2764 33.1519 11.1654C32.4549 10.102 31.5915 9.1557 30.8291 8.25175C30.0667 7.34799 28.9577 6.79649 27.7448 5.9976C26.6678 5.28823 25.0798 5.12798 23.482 4.9553C22.1123 4.80728 20.844 5.1259 19.9453 5.71258C17.8662 7.06977 17.17 8.51909 15.9207 9.5281C14.4152 10.744 12.5264 12.888 10.7217 14.4494C8.84704 16.0712 7.52922 18.9171 6.45364 22.3831C5.96921 23.9442 5.86071 25.7825 6.13533 27.5155C6.31202 28.6306 8.76084 28.4289 10.7705 28.3259C12.5606 28.2342 13.3461 26.0114 14.2823 24.5176C15.977 21.8136 16.3253 18.9462 16.9203 16.5777C17.3784 14.7541 18.1311 12.4948 18.7553 9.89634C18.9984 8.88387 18.9675 8.465 18.5212 9.17963C16.9871 11.6363 15.2331 15.1682 13.5698 17.6626C12.1666 19.7669 11.6901 21.2805 11.2022 22.4258C10.9117 23.1077 10.5084 23.9164 10.3004 24.2326C9.06428 26.1114 11.5361 18.9504 12.93 17.0593C13.1372 16.7783 13.4834 16.7118 13.6936 16.7784C14.9041 17.1619 15.0105 21.5364 15.7376 25.4902C15.9754 26.7833 16.2587 26.5606 16.8454 25.5277C18.463 22.6796 19.6582 20.3193 20.1429 20.0728C21.02 19.6267 20.6318 23.2132 20.9407 24.2649C21.081 24.7423 21.8676 21.6092 22.1859 22.3301C22.5042 23.0509 22.5042 26.8269 22.4699 26.5409C21.904 21.825 22.3648 16.7139 22.5375 16.1231C22.6194 15.8428 23.1263 18.0121 23.4726 20.0249C23.5251 20.3297 23.9584 16.6723 24.3391 12.2296C24.3775 11.7817 24.8613 15.5031 24.9997 19.6973C25.0589 21.4929 25.2088 17.1716 25.2431 10.6484C25.2532 8.72477 25.3461 9.61756 25.2098 13.0295C25.0735 16.4414 24.7303 22.3457 24.8624 24.4604C25.0248 27.0597 27.4223 20.1217 28.3918 18.4178C28.8793 17.5611 29.7816 23.4025 30.4057 27.5717C30.9165 30.9842 31.034 21.1578 31.034 19.7347C31.034 17.9698 31.8662 25.302 31.8662 25.2083C31.8662 19.2151 31.4501 16.2999 31.2774 14.9112C31.2342 14.5637 31.242 14.2195 31.1391 14.1456C30.3529 13.5818 28.0007 16.8991 25.5978 19.4393C23.4307 21.7302 22.4459 24.114 21.2247 26.3068C20.734 27.188 20.2865 28.0086 20.0784 28.1178C19.8032 28.2623 20.0077 26.7853 19.8017 26.4951C19.4275 25.9678 18.6221 27.5239 18.4141 27.8723C17.8787 28.7691 17.998 25.8658 17.6526 25.381C17.4811 25.1402 17.17 25.0336 16.9255 25.0658C16.6811 25.0981 16.4751 25.304 16.6093 25.3758C16.7435 25.4476 17.2241 25.3789 17.5746 25.2063C17.9252 25.0336 18.1311 24.759 18.9675 24.476" stroke="#E0D0FF" stroke-width="7.2" stroke-linecap="round"/>
<path d="M12.5681 13.9889C12.1506 14.6743 11.8531 15.3292 11.5835 15.9429C11.3677 16.4339 11.1955 16.9131 11.0455 17.3916C10.8911 17.8838 10.8372 18.4362 10.6723 18.9146C10.5041 19.4028 10.2996 19.8696 10.1496 20.3481C10.0039 20.8126 10.0004 21.3031 9.89556 21.7815C9.78641 22.2796 9.79074 22.8853 9.64202 24.015C9.16951 27.6044 9.70115 28.112 9.80507 28.5904C9.99948 29.0688 10.1778 29.4272 10.3865 29.6655C10.477 29.7856 10.5361 29.9038 10.7762 30.0257" stroke="#E0D0FF" stroke-width="7.2" stroke-linecap="round"/>
<path d="M15.2998 21.1778C16.2609 21.7612 17.1856 21.8514 17.9905 21.6951C18.1874 21.6278 18.3993 21.5388 18.5791 21.4708C18.7589 21.4028 18.9002 21.3583 19.2598 21.043" stroke="#0D0D0D" stroke-width="1.8" stroke-linecap="round"/>
<path d="M24.5771 20.8348C25.5383 21.4181 26.463 21.5084 27.2678 21.3521C27.4647 21.2848 27.6766 21.1958 27.8565 21.1278C28.0363 21.0597 28.1775 21.0153 28.5371 20.7" stroke="#0D0D0D" stroke-width="1.8" stroke-linecap="round"/>
<path d="M18.9854 27.2712C19.277 27.1623 19.9361 26.8685 20.6151 26.6484C21.1961 26.46 21.8068 26.4283 24.4952 26.4272C25.2182 26.5361 25.5494 26.6473 25.8971 26.7205C26.0633 26.7573 26.2085 26.7936 26.6883 26.9411" stroke="#0D0D0D" stroke-width="1.8" stroke-linecap="round"/>
</svg>
