<svg width="49" height="43" viewBox="0 0 49 43" fill="none" xmlns="http://www.w3.org/2000/svg">
<path d="M16.014 13.6295C12.8576 11.8277 10.4599 10.3241 7.22005 10.2406C6.5006 10.222 6.08891 10.9111 5.78412 11.4394C5.17821 12.4897 5.17679 14.817 5.47481 17.5986C5.86781 21.2665 11.7784 21.9018 15.1764 22.8817C15.8041 23.0627 15.8604 23.8525 15.3412 24.6811C12.7386 28.8338 10.1529 31.8178 9.3175 34.8432C9.15516 35.4311 9.24073 36.0443 9.53876 36.5004C9.83678 36.9564 10.4328 37.2545 11.3359 37.408C12.239 37.5615 13.4311 37.5615 14.2687 37.04C21.3463 32.6332 16.312 16.5013 17.6644 13.7152C18.8713 11.2289 21.27 9.12297 24.5054 6.93975C27.2762 5.06997 31.0415 5.04998 34.0669 5.57379C34.7033 5.68397 35.268 6.09759 35.6496 6.54914C36.4075 7.44608 36.3337 8.80688 36.0357 10.008C35.1592 13.5405 30.4816 15.8781 24.765 18.6619C23.0209 19.5112 21.7396 20.0956 20.762 21.4457C19.7466 22.8481 20.0779 24.9091 20.3014 26.4873C20.6679 29.0746 25.0179 31.9713 28.1968 34.6942C29.2739 35.6168 30.608 35.9044 31.9582 36.0556C36.2675 36.5385 40.6866 32.9015 42.4251 30.3503C43.8625 28.2408 42.3573 25.6768 41.6823 24.4756C40.0815 21.6275 36.9478 19.8066 33.7869 17.7769C32.3812 16.8742 30.9241 16.3387 29.1224 16.6367C27.1381 16.965 25.9526 18.592 25.2752 20.0143C24.8444 20.9191 25.045 22.4798 25.492 23.6945C27.0034 27.8012 31.2041 28.07 34.8887 29.6549C35.8174 30.0544 36.7672 29.8852 37.3023 29.5872C37.8373 29.2891 37.9864 28.6931 38.0631 28.0135C38.1399 27.3339 38.1399 26.5889 37.7674 25.9816C36.6498 24.9272 35.2861 24.3176 34.0105 24.0173C33.3309 23.866 32.5858 23.717 31.8182 23.5635" stroke="#FFF06C" stroke-width="10.56" stroke-linecap="round"/>
<path d="M17.4941 20.1577C17.4941 20.0427 17.6091 19.6962 17.8981 19.2035C18.3021 18.8831 18.7688 18.7072 19.2319 18.6201C19.4653 18.5905 19.6951 18.5905 20.2802 18.9388" stroke="#0D0D0D" stroke-width="2" stroke-linecap="round"/>
<path d="M25.9941 17.8035C25.9941 17.6886 26.0516 17.3996 26.2536 16.9939C26.3981 16.818 26.628 16.7031 27.0624 16.6439C27.4969 16.5847 28.1289 16.5847 28.9543 16.7588" stroke="#0D0D0D" stroke-width="2" stroke-linecap="round"/>
<path d="M23.9941 22.8048C23.9941 23.0346 23.9941 24.4747 24.3389 26.4771C24.4684 27.2292 25.3732 27.1579 25.8146 27.0718C26.4683 26.9441 26.721 26.4057 26.9238 25.9425C27.1186 25.4979 27.1284 24.7829 27.0422 24.0002C26.3762 23.0973 25.7371 22.4583 25.2748 22.1971C24.9849 22.1083 24.5827 22.1083 24.1683 22.1083" stroke="#0D0D0D" stroke-width="2" stroke-linecap="round"/>
</svg>
