<svg width="46" height="42" viewBox="0 0 46 42" fill="none" xmlns="http://www.w3.org/2000/svg">
<path d="M10.5881 36.2571C7.84448 31.067 2.87281 19.0878 3.08468 13.6312C3.12467 12.6014 4.16596 12.6657 4.89772 13.1703C8.3764 15.5691 8.25514 19.4985 10.0704 22.9193C11.468 25.553 12.187 27.7992 12.4077 31.2199C12.4599 32.0297 12.6239 32.6048 12.6982 31.7485C13.2519 25.3641 13.2093 22.4343 13.5719 17.644C14.299 8.03802 14.6598 5.39614 15.9704 3.35154C16.2555 2.90676 16.9839 3.05445 17.3531 3.41488C22.3941 8.33658 17.7266 22.9848 17.4339 27.2837C17.1078 32.0728 16.5602 33.7756 16.3417 34.361C14.9882 37.9885 20.1906 24.1818 21.2872 20.9074C22.7663 16.4907 25.7215 12.9716 28.0544 11.2153C28.638 10.776 29.2165 10.2018 29.6577 10.193C30.099 10.1843 30.3873 10.761 30.5358 11.4906C31.2067 14.7858 28.5087 18.616 26.759 21.104C25.0135 23.5862 22.9779 25.9031 20.645 28.7472C18.5816 31.2627 17.2897 32.9019 17.2854 33.3431C17.2335 38.5949 28.0369 25.641 31.1125 23.2316C33.4437 21.4054 35.3371 20.2412 36.2852 20.1647C36.5948 20.1398 36.224 21.0975 35.7871 21.6851C34.0477 24.0246 30.265 25.1779 26.1125 28.236C22.8906 30.6088 19.78 33.6184 18.5938 35.3812C15.8951 39.3919 27.3117 32.6223 31.1082 31.0932C35.3555 29.3826 39.9942 28.8302 41.6675 29.1185C42.3809 29.2415 42.6199 29.9835 42.6242 30.7131C42.6339 32.3328 41.1782 33.7756 39.6513 34.8656C37.4906 36.4081 34.4852 36.8338 31.6412 37.4935C29.0898 37.7119 17.8227 38.0046 11.7589 36.5542C11.322 36.2571 10.7453 36.2571 10.1512 36.2571" stroke="#FF6868" stroke-width="6.156" stroke-linecap="round"/>
<path d="M36.5867 32.7825L27.79 34.5419" stroke="#FF6868" stroke-width="4.617" stroke-linecap="round"/>
<path d="M2.41113 15.0609C2.41113 15.3389 2.46139 15.8955 2.49985 16.9228C2.52143 17.4993 2.61369 18.0034 2.66471 18.9157C2.70092 19.5631 2.84215 20.2118 3.00701 20.6816C3.15103 21.092 3.2229 21.5566 3.32456 21.9891C3.42752 22.4272 3.60366 22.8771 3.75596 23.3595C3.90458 23.8302 4.0103 24.2478 4.14928 24.6544C4.28591 25.0542 4.36517 25.4662 4.53003 25.8728C4.69159 26.2713 4.77181 26.6846 4.84758 27.0913C4.9256 27.51 5.12668 27.9533 5.2409 28.3858C5.35297 28.8102 5.50743 29.1976 5.6723 29.6042C5.83385 30.0027 5.96434 30.416 6.07856 30.8226C6.24381 31.2293 6.34509 31.559 6.44637 31.7997C6.49739 31.9147 6.54765 32.0152 6.59944 32.1187" stroke="#FF6868" stroke-width="4.617" stroke-linecap="round"/>
<path d="M2.98873 13.9542C2.95907 14.7916 2.89886 16.7523 3.0031 18.0706C3.04505 18.601 3.3176 19.0437 3.3778 19.613C3.44366 20.2356 3.61773 20.8103 3.78172 21.4699C3.92152 22.0322 4.00591 22.6973 4.15642 23.3717C4.28659 23.955 4.33659 24.4352 4.50058 24.915C4.6921 25.4754 4.84519 26.2018 4.9948 26.7418C5.1748 27.3916 5.41309 28.087 5.53439 28.8382C5.62066 29.3724 5.83362 29.8266 5.93875 30.3065C6.05628 30.8429 6.28291 31.5627 6.43252 32.1931C6.57821 32.8069 6.88136 33.3006 7.10646 33.8109C7.3112 34.2752 7.51037 34.7688 7.76512 35.2487C8.03426 35.7556 8.4377 36.2066 8.82814 36.7462C9.13941 37.1763 9.60586 37.4358 10.0857 37.7503C10.5291 38.041 11.1029 38.1547 11.6429 38.2454C12.2815 38.3527 12.8102 38.4548 13.3502 38.6345C13.9506 38.8343 14.6954 38.7549 16.6619 38.8295C18.0866 38.8835 20.786 38.8448 22.2354 38.83C24.2827 38.809 25.3004 38.6956 26.5566 38.6502C27.1892 38.5456 27.7859 38.4854 28.6692 38.4108C28.954 38.3955 29.3099 38.3955 29.9461 38.3056" stroke="#FF6868" stroke-width="4.617" stroke-linecap="round"/>
<path d="M3.02068 19.2493C2.94453 20.0801 3.04504 21.7089 3.2358 22.2047C3.39463 22.6174 3.52784 23.0294 3.69271 23.436C3.85427 23.8345 3.98475 24.2478 4.09898 24.6545C4.12843 24.7593 4.18731 24.857 4.2132 24.7832C4.43965 24.1371 4.11268 23.6934 3.99846 23.2236C3.88638 22.7626 3.73193 22.2725 3.63027 21.7009C3.52055 21.0842 3.45322 20.3687 3.33823 20.1121C3.05788 19.4864 3.47758 21.1013 3.47758 21.1656C3.47758 21.6852 3.3763 20.291 3.3131 20.189C2.85639 19.4516 3.22324 22.5725 3.31234 22.9917C3.41041 23.4532 3.45169 23.8671 3.55336 24.2737C3.65502 24.6804 3.70604 25.1357 3.83245 25.5934C3.976 26.1132 4.0609 26.5826 4.22577 27.0151C4.37406 27.4042 4.41576 27.8269 4.48011 28.2968C4.54164 28.7461 4.72037 29.2479 4.86049 29.7562C4.99619 30.2485 5.12702 30.6445 5.35509 31.0512C5.56757 31.43 5.71033 31.8629 5.90109 32.3328C6.07068 32.7505 6.31954 33.1575 6.58607 33.6273C6.82491 34.0484 7.13131 34.5023 7.43629 34.8842C7.77565 35.3092 8.22179 35.7207 8.72972 36.052C9.56888 36.5993 10.4028 36.965 11.558 37.2708C12.0182 37.3926 13.1145 37.3732 14.6356 37.3481C15.6568 37.3312 16.1681 37.1706 16.4088 37.0442C16.6243 36.8676 16.8032 36.6635 16.9426 36.4609C17.0066 36.3589 17.0568 36.2584 17.1086 36.1548" stroke="#FF6868" stroke-width="4.617" stroke-linecap="round"/>
<path d="M14.9629 26.309L14.9986 26.6147" stroke="#0D0D0D" stroke-width="2.25" stroke-linecap="round"/>
<path d="M21.1191 25.3854L21.1549 25.6912" stroke="#0D0D0D" stroke-width="2.25" stroke-linecap="round"/>
<path d="M10.9609 22.3075L15.0086 23.0771" stroke="#0D0D0D" stroke-width="1.8" stroke-linecap="round"/>
<path d="M20.504 29.7189C18.7758 29.6276 17.1334 29.8083 16.3095 30.0373C15.4558 30.2746 14.8505 31.3868 14.5434 32.0283C14.1863 32.7743 14.3897 33.5795 14.5868 33.9289C14.8591 34.4117 16.6279 34.2811 17.7037 34.1297C18.34 34.0401 18.8288 33.9472 19.7837 33.7647C21.9549 33.3497 22.7815 33.3705 23.225 32.99C23.875 32.4323 23.1228 30.5163 22.6803 29.9328C22.5735 29.8712 22.4531 29.8411 22.2103 29.8256C21.9676 29.8101 21.6063 29.8101 20.9603 29.7189" stroke="#0D0D0D" stroke-width="1.8" stroke-linecap="round"/>
<path d="M19.8877 22.4018L22.3865 21.0762" stroke="#0D0D0D" stroke-width="1.8" stroke-linecap="round"/>
</svg>
