<svg width="47" height="36" viewBox="0 0 47 36" fill="none" xmlns="http://www.w3.org/2000/svg">
<path d="M6.91003 10.3495C5.6653 11.0608 4.84626 11.7829 4.53238 12.5885C3.83714 14.3728 4.03798 15.9104 3.99083 20.5688C3.96414 23.2062 4.84087 24.8014 5.64913 26.5082C6.52723 28.3625 8.16017 29.2038 9.86696 30.2384C11.4127 31.1753 13.0098 31.3592 24.7351 31.5895C28.2871 31.6593 30.0697 31.1867 32.675 30.6034C34.7352 30.1422 36.1802 29.8396 38.3342 28.8549C40.4186 27.902 40.6742 25.2702 41.5727 22.6177C42.2104 20.7351 42.2045 14.4448 41.9364 10.6244C41.8208 8.97733 40.0545 7.6607 38.1712 6.4025C36.1974 5.08378 34.041 4.69166 31.6162 4.24441C30.0113 3.9484 21.2703 3.88339 15.5841 4.19592C13.7629 4.29601 12.3955 5.0473 10.0623 6.2139C8.43064 7.02973 7.45427 8.63602 6.64331 10.0747C5.87198 11.4431 5.65452 12.9468 5.69628 20.0205C5.7136 22.9558 7.62131 24.0847 8.92532 25.1638C9.75796 25.8528 10.7682 26.1539 13.8854 26.5567C21.7536 27.5734 28.1837 27.0565 30.0225 26.6079C31.239 26.3371 32.1415 26.0677 33.1263 25.7094C33.6665 25.5288 34.2888 25.351 35.1995 25.1678" stroke="#D9D9D9" stroke-width="7.98" stroke-linecap="round"/>
<path d="M17.1166 4.11145C15.8806 4.35915 14.974 4.52262 13.9622 4.64771C13.2023 4.74165 12.5788 5.14186 11.7119 5.47253C11.001 5.74367 10.1861 6.00879 9.44052 6.23667C8.74218 6.45012 7.79334 7.36616 7.0868 8.09314C6.46429 8.73366 5.93068 9.51615 5.51765 10.0951C5.06926 10.7237 5.14549 11.4977 4.87736 12.159C4.0742 14.14 4.89532 17.9378 5.14363 18.5787C5.41872 19.2887 6.13132 20.1249 7.57351 21.4036C8.52372 22.2461 10.4177 22.4396 12.1714 22.278C13.439 22.1612 13.1943 20.2153 13.1949 18.2276C13.1955 16.6071 13.0321 13.7468 12.8872 12.8452C12.5682 10.8602 12.3695 16.2448 12.3076 17.313C12.267 18.0125 12.2865 19.0351 13.0222 17.9675C13.7578 16.8999 15.2291 13.7121 16.1914 11.8247C17.1537 9.93723 17.5624 9.44679 17.9773 10.8289C18.3922 12.2111 18.8009 15.4806 19.0114 17.451C19.222 19.4215 19.222 19.9936 19.222 20.0227C19.222 20.0518 19.222 19.5205 19.5081 17.4894C19.7941 15.4583 20.3663 11.9436 21.3559 12.2581C22.3454 12.5727 23.735 16.8231 24.4917 19.0945C25.2484 21.3659 25.3301 21.5293 25.4131 21.4909C25.4961 21.4526 25.5778 21.2073 26.0695 19.0171C26.5612 16.8269 27.4603 12.699 28.7409 12.3913C30.0215 12.0835 31.6562 15.7209 32.8049 16.8795C33.9536 18.0381 34.5667 16.6076 34.9438 15.789C35.4048 14.7882 35.7742 14.1889 36.1655 13.6099C36.2929 13.4215 36.516 13.6848 36.682 14.0149C37.9058 16.449 37.7991 19.9998 37.7173 20.8048C37.6802 21.1704 35.1785 21.6916 30.8958 22.7839C28.7544 23.3301 26.6132 23.5902 24.8645 23.7586C21.8174 24.0521 19.8883 23.8044 18.96 23.5573C18.5955 23.4603 18.4814 23.3103 18.3569 23.0428C18.0532 22.39 17.9018 21.2916 17.7779 19.2995C17.4274 13.6611 17.9414 12.5801 18.3736 11.9157C19.2688 10.5396 21.0784 9.06658 21.3664 8.86038C21.6835 8.63326 23.4997 8.6938 26.098 8.73467C28.5968 8.77398 29.8283 9.02323 32.9566 9.39416C34.1502 9.53568 34.7004 10.341 35.319 11.1051C35.5661 11.4135 35.9339 11.9039 36.2052 12.177C36.4764 12.4501 36.6399 12.491 36.8083 12.5331" stroke="#D9D9D9" stroke-width="7.98" stroke-linecap="round"/>
<path d="M15.5479 19.4553V19.8154" stroke="#0D0D0D" stroke-width="2.5" stroke-linecap="round"/>
<path d="M21.0479 19.4553V19.6954" stroke="#0D0D0D" stroke-width="2.5" stroke-linecap="round"/>
<path d="M15.4424 24.9587C16.4793 25.0787 17.9147 24.9203 19.2583 24.8189C19.8374 24.7594 20.6775 24.7186 21.8938 24.6988C22.5557 24.679 23.3082 24.6394 24.0835 24.5986" stroke="#0D0D0D" stroke-width="2" stroke-linecap="round"/>
</svg>
