<svg width="37" height="49" viewBox="0 0 37 49" fill="none" xmlns="http://www.w3.org/2000/svg">
<path d="M16.3334 5.74896C15.8078 7.69648 13.7114 11.8924 12.4036 14.1898C11.8244 15.2072 11.3744 16.0882 10.5313 17.408C9.80379 18.5466 9.21154 20.1479 8.57741 21.6038C7.95995 23.0215 7.73269 24.5307 7.20464 25.8005C6.83845 26.6811 6.46601 28.1692 5.96408 29.8895C5.64328 30.9891 5.725 33.6476 5.90867 35.5381C6.03466 36.8349 6.83018 37.834 7.72715 39.468C8.32856 40.5636 9.72771 41.3173 10.92 42.0053C11.944 42.5962 13.1098 42.7994 15.8181 43.0622C19.743 43.4431 20.8143 42.9577 21.8712 42.8001C22.8866 42.6488 23.7182 42.3782 24.7735 41.9831C26.1361 41.473 26.7804 40.4275 27.5459 39.6097C28.3945 38.7032 28.5759 37.473 28.9464 36.6275C29.2917 35.8396 29.4214 34.7306 29.5014 33.7774C29.5866 32.7619 29.8964 31.6146 29.9241 25.5915C29.9341 23.424 29.4246 22.5895 28.8965 21.3497C28.4674 20.3422 27.8951 19.0554 27.2609 17.8133C26.69 16.6949 26.0996 15.7811 25.5193 14.8041C24.9898 13.9128 24.1489 12.9342 23.4086 11.9011C22.6555 10.8499 21.9322 10.081 21.192 9.34079C20.2412 8.38999 19.3988 7.75665 18.7108 7.04493C18.3869 6.70978 18.0767 6.38389 17.7086 6.14638C17.5184 6.02371 17.236 6.06563 17.0752 6.19626C16.2795 6.84305 16.6501 10.5243 16.5187 12.764C16.398 14.8215 16.0168 17.6684 15.8331 19.0705C15.6392 20.5506 15.3834 21.6838 14.7263 25.578C14.4156 27.4195 14.1199 29.6449 13.6695 32.2875C13.5788 32.8194 13.5373 33.1346 14.3463 32.0682C15.1554 31.0018 16.8275 28.546 18.159 26.3666C19.4906 24.1871 20.4312 22.3583 21.0463 21.5991C21.6614 20.8399 21.9227 21.2056 22.1095 21.6814C22.508 22.6962 22.5608 24.7872 22.5877 27.5002C22.6314 31.9119 21.0312 34.3522 20.9521 34.5129C20.2502 35.9377 22.29 30.7247 23.6913 29.8697C23.9455 29.7146 24.1932 29.8159 24.4315 29.9726C25.0047 30.3497 25.3047 30.9749 25.463 31.6051C25.5665 32.0169 25.5169 32.6532 25.4385 33.0546C25.3224 33.649 22.8473 33.7743 20.6663 34.2469C19.4334 34.5141 18.661 35.8801 18.2335 36.7272C18.2841 36.8871 18.4931 36.9916 18.7053 37.1238C18.9175 37.2561 19.1265 37.4128 19.3418 37.5743" stroke="#C8E1FF" stroke-width="11.495" stroke-linecap="round"/>
<path d="M27.3486 20.4359C27.568 21.5357 27.9197 22.3262 28.3605 22.9673C28.7854 23.5853 29.1094 24.3541 29.5503 25.0818C29.995 25.8158 30.1669 26.6013 30.3665 27.3727C30.5039 27.9036 30.4326 28.4097 30.4987 29.7429C30.7797 35.41 30.0374 36.1192 29.8391 36.8251C29.6283 37.5755 29.157 38.2343 28.804 38.9402C28.4588 39.6307 27.9672 40.2172 27.4609 40.7698C26.7775 41.1452 26.2487 41.366 25.8099 41.4321C25.5455 41.4545 25.1965 41.4545 24.8369 41.4545" stroke="#C8E1FF" stroke-width="11.495" stroke-linecap="round"/>
<path d="M24.7051 15.6769C25.1889 16.1158 25.715 17.0808 26.2894 18.0531C26.7717 18.8695 26.9947 19.5951 27.4573 20.1913C27.9231 20.7915 28.0522 21.578 28.2736 22.2839C28.4992 23.003 28.9776 23.6931 29.4402 24.2893C29.9183 24.9053 30.08 25.676 30.3444 26.3819C30.6092 27.0887 30.6088 27.9233 30.6319 31.8329C30.6407 33.3141 30.0827 34.0914 29.6418 34.8423C29.2719 35.4724 28.6312 36.2065 27.9901 36.8701C27.6609 36.96 27.2194 37.0472 26.6919 37.2012C26.4262 37.268 26.1645 37.3116 25.8948 37.3566" stroke="#C8E1FF" stroke-width="11.495" stroke-linecap="round"/>
<path d="M21.0576 16.7634L21.6277 16.9506" stroke="#0D0D0D" stroke-width="2.5" stroke-linecap="round"/>
<path d="M14.0928 17.9506L14.6628 17.7634" stroke="#0D0D0D" stroke-width="2.5" stroke-linecap="round"/>
<path d="M14.7285 24.8746C15.1869 24.7496 16.048 24.4144 17.1929 23.9728C18.1086 23.7395 19.0373 23.5292 20.1702 23.277C20.7823 23.1707 21.4698 23.1082 22.1781 23.0438" stroke="#0D0D0D" stroke-width="2" stroke-linecap="round"/>
</svg>
