<svg width="78" height="86" viewBox="0 0 78 86" fill="none" xmlns="http://www.w3.org/2000/svg">
<path d="M44.7598 37.2203C41.6035 35.4186 39.2058 33.9149 35.9659 33.8314C35.2465 33.8128 34.8348 34.5019 34.53 35.0303C33.9241 36.0805 33.9227 38.4078 34.2207 41.1894C34.6137 44.8574 40.5243 45.4926 43.9222 46.4725C44.5499 46.6535 44.6063 47.4433 44.087 48.2719C41.4845 52.4246 38.8987 55.4087 38.0634 58.434C37.901 59.0219 37.9866 59.6351 38.2846 60.0912C38.5827 60.5473 39.1787 60.8453 40.0818 60.9988C40.9849 61.1523 42.177 61.1523 43.0146 60.6308C50.0922 56.224 45.0579 40.0921 46.4103 37.3061C47.6172 34.8197 50.0159 32.7138 53.2512 30.5306C56.0221 28.6608 59.7874 28.6408 62.8128 29.1646C63.4491 29.2748 64.0139 29.6884 64.3955 30.14C65.1534 31.0369 65.0796 32.3977 64.7815 33.5988C63.905 37.1313 59.2275 39.469 53.5109 42.2528C51.7668 43.1021 50.4855 43.6864 49.5079 45.0366C48.4924 46.439 48.8238 48.4999 49.0473 50.0781C49.4137 52.6655 53.7637 55.5622 56.9426 58.285C58.0197 59.2076 59.3539 59.4952 60.704 59.6465C65.0134 60.1293 69.4325 56.4924 71.171 53.9411C72.6084 51.8317 71.1032 49.2676 70.4281 48.0665C68.8274 45.2183 65.6937 43.3974 62.5328 41.3677C61.1271 40.4651 59.67 39.9295 57.8683 40.2276C55.884 40.5558 54.6984 42.1828 54.0211 43.6052C53.5902 44.51 53.7908 46.0706 54.2379 47.2853C55.7492 51.392 59.95 51.6608 63.6346 53.2457C64.5633 53.6452 65.513 53.476 66.0481 53.178C66.5832 52.88 66.7322 52.2839 66.809 51.6043C66.8858 50.9248 66.8858 50.1797 66.5132 49.5724C65.3956 48.518 64.032 47.9084 62.7563 47.6081C62.0768 47.4569 61.3317 47.3079 60.5641 47.1543" stroke="#FFF06C" stroke-width="10.56" stroke-linecap="round"/>
<path d="M46.2396 43.7485C46.2396 43.6336 46.3546 43.2871 46.6436 42.7943C47.0476 42.4739 47.5142 42.298 47.9774 42.211C48.2107 42.1814 48.4406 42.1814 49.0257 42.5296" stroke="#0D0D0D" stroke-width="2" stroke-linecap="round"/>
<path d="M54.7396 41.3944C54.7396 41.2794 54.7971 40.9904 54.9991 40.5847C55.1436 40.4088 55.3735 40.2939 55.8079 40.2347C56.2423 40.1755 56.8744 40.1755 57.6998 40.3496" stroke="#0D0D0D" stroke-width="2" stroke-linecap="round"/>
<path d="M52.7396 46.3956C52.7396 46.6254 52.7396 48.0655 53.0844 50.0679C53.2139 50.82 54.1187 50.7488 54.5601 50.6626C55.2138 50.5349 55.4665 49.9965 55.6693 49.5334C55.8641 49.0887 55.8739 48.3737 55.7877 47.591C55.1217 46.6881 54.4826 46.0491 54.0203 45.7879C53.7304 45.6991 53.3282 45.6991 52.9138 45.6991" stroke="#0D0D0D" stroke-width="2" stroke-linecap="round"/>
<path d="M14.9073 6.87024C14.5656 8.13613 13.203 10.8634 12.3529 12.3568C11.9764 13.0181 11.6839 13.5908 11.1359 14.4486C10.663 15.1887 10.278 16.2296 9.86587 17.1759C9.46452 18.0974 9.3168 19.0783 8.97357 19.9037C8.73554 20.4762 8.49346 21.4434 8.1672 22.5616C7.95868 23.2763 8.0118 25.0044 8.13118 26.2332C8.21308 27.0761 8.73017 27.7255 9.3132 28.7876C9.70411 29.4997 10.6136 29.9897 11.3885 30.4369C12.0542 30.8209 12.8119 30.953 14.5723 31.1238C17.1235 31.3714 17.8199 31.0559 18.5068 30.9535C19.1669 30.8551 19.7074 30.6792 20.3933 30.4225C21.279 30.0909 21.6978 29.4113 22.1954 28.8797C22.747 28.2905 22.8649 27.4908 23.1057 26.9413C23.3301 26.4291 23.4145 25.7083 23.4664 25.0887C23.5218 24.4287 23.7232 23.6829 23.7412 19.7679C23.7477 18.359 23.4165 17.8166 23.0733 17.0107C22.7944 16.3559 22.4223 15.5194 22.0102 14.7121C21.639 13.9851 21.2553 13.3911 20.8781 12.7561C20.5339 12.1767 19.9873 11.5406 19.5062 10.8691C19.0166 10.1859 18.5465 9.68607 18.0653 9.20493C17.4473 8.5869 16.8998 8.17524 16.4526 7.71262C16.242 7.49477 16.0404 7.28294 15.8011 7.12856C15.6775 7.04883 15.4939 7.07608 15.3895 7.16098C14.8722 7.58139 15.1131 9.97424 15.0277 11.43C14.9492 12.7674 14.7015 14.6179 14.5821 15.5292C14.456 16.4913 14.2898 17.2279 13.8627 19.7591C13.6607 20.9561 13.4685 22.4026 13.1757 24.1203C13.1168 24.466 13.0898 24.6709 13.6157 23.9777C14.1416 23.2846 15.2284 21.6883 16.0939 20.2717C16.9595 18.855 17.5708 17.6663 17.9706 17.1728C18.3705 16.6793 18.5403 16.9171 18.6617 17.2263C18.9207 17.8859 18.955 19.2451 18.9725 21.0086C19.001 23.8762 17.9609 25.4623 17.9094 25.5668C17.4532 26.4929 18.7791 23.1045 19.6899 22.5487C19.8551 22.4479 20.0161 22.5137 20.171 22.6156C20.5436 22.8607 20.7386 23.2671 20.8415 23.6767C20.9088 23.9444 20.8765 24.358 20.8256 24.6189C20.7501 25.0053 19.1413 25.0867 17.7236 25.3939C16.9222 25.5676 16.4202 26.4555 16.1423 27.0061C16.1752 27.11 16.3111 27.178 16.449 27.2639C16.5869 27.3499 16.7228 27.4517 16.8627 27.5567" stroke="#C8E1FF" stroke-width="7.47175" stroke-linecap="round"/>
<path d="M22.0672 16.4167C22.2098 17.1316 22.4384 17.6455 22.725 18.0622C23.0011 18.4639 23.2117 18.9636 23.4983 19.4366C23.7873 19.9137 23.8991 20.4243 24.0289 20.9257C24.1182 21.2708 24.0718 21.5998 24.1148 22.4663C24.2974 26.15 23.8149 26.6109 23.686 27.0698C23.549 27.5575 23.2427 27.9857 23.0132 28.4446C22.7888 28.8934 22.4693 29.2746 22.1402 29.6338C21.696 29.8778 21.3523 30.0213 21.067 30.0643C20.8952 30.0789 20.6683 30.0789 20.4346 30.0789" stroke="#C8E1FF" stroke-width="7.47175" stroke-linecap="round"/>
<path d="M20.3486 13.3235C20.6631 13.6088 21.0051 14.236 21.3784 14.868C21.6919 15.3986 21.8368 15.8703 22.1376 16.2578C22.4403 16.648 22.5242 17.1592 22.6682 17.618C22.8148 18.0854 23.1257 18.534 23.4264 18.9215C23.7372 19.3219 23.8423 19.8229 24.0142 20.2817C24.1863 20.7411 24.186 21.2836 24.2011 23.8249C24.2068 24.7876 23.844 25.2929 23.5575 25.7809C23.317 26.1905 22.9006 26.6677 22.4838 27.099C22.2699 27.1575 21.9829 27.2142 21.6401 27.3143C21.4674 27.3577 21.2972 27.386 21.1219 27.4152" stroke="#C8E1FF" stroke-width="7.47175" stroke-linecap="round"/>
<path d="M17.9782 14.0297L18.3488 14.1514" stroke="#0D0D0D" stroke-width="1.625" stroke-linecap="round"/>
<path d="M13.4506 14.8013L13.8211 14.6796" stroke="#0D0D0D" stroke-width="1.625" stroke-linecap="round"/>
<path d="M13.8643 19.3019C14.1622 19.2206 14.722 19.0027 15.4661 18.7157C16.0614 18.564 16.665 18.4274 17.4014 18.2634C17.7992 18.1943 18.2461 18.1537 18.7065 18.1118" stroke="#0D0D0D" stroke-width="1.3" stroke-linecap="round"/>
<path d="M2.21191 70.3529C1.9685 66.5033 2.12915 64.8031 2.85634 62.6355C4.16988 58.7202 5.29349 58.3478 5.83995 57.7588C6.74866 56.7792 7.96615 56.4809 10.455 56.0537C14.1244 55.4239 15.0664 56.274 15.8405 56.6391C16.5943 56.9947 17.3764 58.4574 18.9616 60.9724C19.7399 62.2071 20.0199 63.1674 20.3046 64.5865C20.346 65.2753 20.3862 65.767 20.447 66.6731C20.4677 67.4186 20.4677 68.7439 20.4677 70.1095" stroke="#E0D0FF" stroke-width="4.212" stroke-linecap="round"/>
<path d="M2.21179 71.0831C2.61585 71.8109 3.183 72.5411 4.01242 72.8673C5.65796 73.5144 6.58832 72.4243 7.30091 72.0379C7.90742 71.709 8.13398 71.1658 8.31593 70.9827C8.69924 70.5968 9.26584 72.0129 10.0995 72.6026C10.7394 73.0552 12.2233 72.9087 13.3649 72.5454C14.1935 72.2817 14.4627 71.3703 14.7864 70.861C15.1424 70.3009 15.9207 71.6892 16.5907 72.1565C17.7223 72.9459 19.8956 72.1005 20.5668 71.6727C20.7147 71.5785 20.8303 71.4506 20.9325 71.3082C22.1991 69.5441 21.1175 65.3264 21.036 64.514C20.9551 63.7084 20.6307 63.0943 20.4281 62.4043C20.1665 61.5136 19.8201 60.9036 19.3942 60.2537C18.9864 59.6316 18.4814 59.0781 18.0353 58.5492C17.5894 58.0205 16.9406 57.6979 16.231 57.2306C15.601 56.8156 14.672 56.7218 13.7373 56.6208C12.936 56.5342 12.1941 56.7206 11.6683 57.0638C10.452 57.8578 10.0448 58.7056 9.31392 59.2959C8.43324 60.0072 7.32829 61.2615 6.2725 62.1749C5.17585 63.1236 4.40492 64.7885 3.77571 66.8161C3.49232 67.7293 3.42884 68.8048 3.58949 69.8186C3.69286 70.4709 5.12542 70.3529 6.30109 70.2926C7.34829 70.239 7.80781 68.9386 8.35548 68.0648C9.3469 66.4829 9.55063 64.8055 9.89871 63.4199C10.1667 62.3531 10.607 61.0314 10.9722 59.5113C11.1144 58.919 11.0963 58.674 10.8352 59.0921C9.93781 60.5292 8.91168 62.5953 7.93864 64.0546C7.1178 65.2856 6.83903 66.1711 6.55363 66.841C6.3837 67.24 6.14775 67.7131 6.02604 67.8981C5.30293 68.9971 6.74897 64.808 7.5644 63.7017C7.68557 63.5373 7.88814 63.4984 8.01106 63.5373C8.71923 63.7617 8.78146 66.3208 9.20681 68.6338C9.34592 69.3902 9.51168 69.2599 9.85489 68.6557C10.8012 66.9895 11.5004 65.6088 11.7839 65.4646C12.297 65.2036 12.0699 67.3017 12.2507 67.9169C12.3327 68.1962 12.7929 66.3633 12.9791 66.7851C13.1653 67.2068 13.1653 69.4157 13.1452 69.2484C12.8142 66.4896 13.0837 63.4996 13.1848 63.154C13.2327 62.99 13.5292 64.2591 13.7318 65.4366C13.7625 65.6148 14.016 63.4753 14.2387 60.8763C14.2612 60.6143 14.5442 62.7913 14.6251 65.2449C14.6598 66.2953 14.7475 63.7674 14.7675 59.9513C14.7735 58.826 14.8278 59.3482 14.7481 61.3442C14.6683 63.3402 14.4675 66.7942 14.5448 68.0313C14.6398 69.5519 16.0424 65.4932 16.6095 64.4964C16.8947 63.9952 17.4225 67.4125 17.7877 69.8514C18.0865 71.8477 18.1552 66.0993 18.1552 65.2668C18.1552 64.2343 18.642 68.5236 18.642 68.4689C18.642 64.9628 18.3986 63.2574 18.2976 62.445C18.2723 62.2417 18.2769 62.0404 18.2167 61.9972C17.7567 61.6673 16.3807 63.6079 14.975 65.094C13.7073 66.4341 13.1312 67.8287 12.4168 69.1115C12.1297 69.627 11.8679 70.107 11.7462 70.1709C11.5852 70.2554 11.7048 69.3914 11.5843 69.2216C11.3654 68.9132 10.8943 69.8234 10.7726 70.0273C10.4594 70.5519 10.5291 68.8534 10.3271 68.5699C10.2267 68.429 10.0448 68.3666 9.90175 68.3855C9.75875 68.4043 9.63826 68.5248 9.71676 68.5668C9.79526 68.6088 10.0764 68.5687 10.2815 68.4676C10.4865 68.3666 10.607 68.206 11.0963 68.0404" stroke="#E0D0FF" stroke-width="4.212" stroke-linecap="round"/>
<path d="M7.35264 61.9055C7.10841 62.3065 6.9344 62.6896 6.77665 63.0486C6.65043 63.3358 6.54971 63.6162 6.46192 63.8961C6.3716 64.184 6.34007 64.5072 6.24363 64.7871C6.14522 65.0727 6.0256 65.3458 5.93782 65.6256C5.85258 65.8974 5.85055 66.1843 5.78923 66.4642C5.72538 66.7556 5.72791 67.1099 5.64091 67.7708C5.36449 69.8706 5.6755 70.1675 5.7363 70.4474C5.85003 70.7273 5.95433 70.9369 6.07644 71.0763C6.12938 71.1466 6.16397 71.2158 6.30443 71.287" stroke="#E0D0FF" stroke-width="4.212" stroke-linecap="round"/>
<path d="M8.95037 66.1109C9.51262 66.4522 10.0536 66.505 10.5244 66.4136C10.6396 66.3742 10.7636 66.3222 10.8688 66.2824C10.9739 66.2426 11.0566 66.2165 11.267 66.0321" stroke="#0D0D0D" stroke-width="1.053" stroke-linecap="round"/>
<path d="M14.3776 65.9104C14.9398 66.2517 15.4808 66.3045 15.9516 66.213C16.0668 66.1736 16.1908 66.1216 16.296 66.0818C16.4012 66.042 16.4838 66.016 16.6942 65.8315" stroke="#0D0D0D" stroke-width="1.053" stroke-linecap="round"/>
<path d="M11.1068 69.6756C11.2774 69.6119 11.663 69.44 12.0602 69.3113C12.4001 69.2011 12.7573 69.1825 14.33 69.1819C14.7529 69.2456 14.9467 69.3106 15.1501 69.3534C15.2473 69.375 15.3323 69.3963 15.613 69.4825" stroke="#0D0D0D" stroke-width="1.053" stroke-linecap="round"/>
<path d="M44.0736 10.9699C44.3815 10.0631 45.6908 7.79525 46.6246 6.77875C47.2954 6.0485 49.72 5.94453 51.5522 6.10645C52.5362 6.1934 53.2252 6.76075 53.7668 7.1872C54.6819 7.9079 53.3504 9.54852 52.8168 10.3464C52.5133 10.8002 51.8435 10.5781 51.1756 10.3961C50.7608 10.2831 50.2459 9.96357 49.9774 9.65307C49.5227 9.12719 49.8705 8.06696 50.2786 6.80887C50.7427 5.37808 51.7237 4.43872 52.5433 3.90682C53.2696 3.43544 53.9783 3.18128 54.6073 3.17212C54.8793 3.19967 55.0553 3.29258 55.379 3.37895C55.7026 3.46531 56.1685 3.54231 56.7818 3.69203" stroke="#FFD54F" stroke-width="2" stroke-linecap="round"/>
<path d="M34.9617 75.3033C35.0878 75.798 35.2047 76.6581 35.6483 78.0127C35.951 78.937 36.7282 79.648 37.9528 80.2619C38.4267 80.4995 38.9484 80.5965 39.793 80.5756C41.191 80.5409 42.0944 79.7843 42.3267 79.4798C42.8156 78.8387 42.5753 77.9094 42.1475 76.7948C42.0178 76.4569 41.3525 76.7047 40.7492 76.8452C40.1078 76.9946 39.6469 77.381 39.4158 77.8203C39.0557 78.5051 39.2753 79.3101 39.2955 80.0252C39.3154 80.7284 39.7727 82.1943 40.4251 83.2408C40.5821 83.3686 40.743 83.4469 40.9132 83.5464C41.0834 83.6459 41.258 83.7641 41.4379 83.8859" stroke="#FFD54F" stroke-width="2" stroke-linecap="round"/>
<path d="M1.65062 43.6176C1.73366 44.1656 1.56924 45.5524 1.27819 46.1341C1.19202 46.3063 1.04443 46.4924 1.02865 46.6049C0.968518 47.0337 2.0077 47.0488 2.42415 47.3668C2.8954 47.7962 3.11712 48.1283 3.22756 48.3492C3.2832 48.4605 3.33801 48.5701 3.47751 48.7661" stroke="#FFD54F" stroke-width="2" stroke-linecap="round"/>
<path d="M1.73367 42.8702C1.92632 43.0629 2.4229 43.5047 2.90827 43.9481C3.39577 44.3935 3.86282 44.6407 4.30626 44.8761C4.42206 44.9376 4.52715 45.0276 4.56992 45.1248C4.74501 45.5226 4.33616 46.0507 4.2253 46.5913C4.12644 47.0733 4.08703 47.5737 4.0451 48.1686C4.0314 48.3219 4.00399 48.4589 3.98988 48.598C3.97576 48.7371 3.97576 48.8741 3.97576 49.0152" stroke="#FFD54F" stroke-width="2" stroke-linecap="round"/>
</svg>
